<mxfile host="app.diagrams.net" modified="2023-05-29T19:40:15.492Z" agent="Mozilla/5.0 (Windows NT 10.0; Win64; x64) AppleWebKit/537.36 (KHTML, like Gecko) Chrome/113.0.0.0 Safari/537.36" etag="xqfoBz43jcms_TddFYVp" version="21.3.5" type="device">
  <diagram name="Страница 1" id="sv7Qc_1NdzTaFf31CC1c">
    <mxGraphModel dx="2060" dy="1209" grid="0" gridSize="10" guides="1" tooltips="1" connect="1" arrows="1" fold="1" page="0" pageScale="1" pageWidth="827" pageHeight="1169" math="0" shadow="0">
      <root>
        <mxCell id="0" />
        <mxCell id="1" parent="0" />
        <mxCell id="u4SjlKCRXY-vNbzxDMIi-165" value="&amp;lt;&amp;lt;component&amp;gt;&amp;gt;&lt;br&gt;БД" style="shape=module;align=left;spacingLeft=20;align=center;verticalAlign=top;whiteSpace=wrap;html=1;" parent="1" vertex="1">
          <mxGeometry x="1912" y="1004" width="434" height="234" as="geometry" />
        </mxCell>
        <mxCell id="u4SjlKCRXY-vNbzxDMIi-134" value="&lt;font style=&quot;font-size: 15px;&quot;&gt;&amp;lt;&amp;lt;component&amp;gt;&amp;gt;&lt;br&gt;Оформление билета&lt;br&gt;&lt;/font&gt;" style="shape=module;align=center;spacingLeft=20;align=center;verticalAlign=top;whiteSpace=wrap;html=1;" parent="1" vertex="1">
          <mxGeometry x="2027" y="1391" width="310" height="60" as="geometry" />
        </mxCell>
        <mxCell id="u4SjlKCRXY-vNbzxDMIi-135" value="" style="rounded=0;orthogonalLoop=1;jettySize=auto;html=1;endArrow=halfCircle;endFill=0;endSize=6;strokeWidth=1;sketch=0;exitX=1;exitY=0.5;exitDx=0;exitDy=0;" parent="1" edge="1">
          <mxGeometry relative="1" as="geometry">
            <mxPoint x="2337" y="1420.58" as="sourcePoint" />
            <mxPoint x="2377" y="1420.58" as="targetPoint" />
            <Array as="points" />
          </mxGeometry>
        </mxCell>
        <mxCell id="u4SjlKCRXY-vNbzxDMIi-234" style="edgeStyle=orthogonalEdgeStyle;rounded=0;orthogonalLoop=1;jettySize=auto;html=1;endArrow=oval;endFill=0;startSize=6;endSize=9;" parent="1" source="u4SjlKCRXY-vNbzxDMIi-137" edge="1">
          <mxGeometry relative="1" as="geometry">
            <mxPoint x="2466" y="1383" as="targetPoint" />
          </mxGeometry>
        </mxCell>
        <mxCell id="u4SjlKCRXY-vNbzxDMIi-137" value="Физическое лицо" style="shape=module;align=left;spacingLeft=20;align=center;verticalAlign=top;whiteSpace=wrap;html=1;" parent="1" vertex="1">
          <mxGeometry x="2495" y="1358" width="110" height="50" as="geometry" />
        </mxCell>
        <mxCell id="u4SjlKCRXY-vNbzxDMIi-138" value="" style="ellipse;whiteSpace=wrap;html=1;align=center;aspect=fixed;resizable=0;points=[];outlineConnect=0;sketch=0;direction=south;rotation=132;" parent="1" vertex="1">
          <mxGeometry x="2459" y="1439.5" width="10" height="10" as="geometry" />
        </mxCell>
        <mxCell id="u4SjlKCRXY-vNbzxDMIi-139" style="rounded=0;orthogonalLoop=1;jettySize=auto;html=1;endArrow=none;endFill=0;dashed=1;startArrow=open;startFill=0;endSize=6;startSize=10;" parent="1" edge="1">
          <mxGeometry relative="1" as="geometry">
            <mxPoint x="2462" y="1385" as="sourcePoint" />
            <mxPoint x="2377" y="1420" as="targetPoint" />
          </mxGeometry>
        </mxCell>
        <mxCell id="u4SjlKCRXY-vNbzxDMIi-140" value="&lt;font style=&quot;font-size: 11px;&quot;&gt;Человек&lt;/font&gt;" style="text;html=1;align=center;verticalAlign=middle;resizable=0;points=[];autosize=1;strokeColor=none;fillColor=none;" parent="1" vertex="1">
          <mxGeometry x="2430.5" y="1355" width="70" height="30" as="geometry" />
        </mxCell>
        <mxCell id="u4SjlKCRXY-vNbzxDMIi-141" value="&lt;font style=&quot;font-size: 11px;&quot;&gt;Клиент&lt;/font&gt;" style="text;html=1;align=center;verticalAlign=middle;resizable=0;points=[];autosize=1;strokeColor=none;fillColor=none;" parent="1" vertex="1">
          <mxGeometry x="2355" y="1381" width="54" height="26" as="geometry" />
        </mxCell>
        <mxCell id="u4SjlKCRXY-vNbzxDMIi-142" value="Юридическое лицо" style="shape=module;align=left;spacingLeft=20;align=center;verticalAlign=top;whiteSpace=wrap;html=1;" parent="1" vertex="1">
          <mxGeometry x="2495" y="1419.5" width="110" height="50" as="geometry" />
        </mxCell>
        <mxCell id="u4SjlKCRXY-vNbzxDMIi-143" style="rounded=0;orthogonalLoop=1;jettySize=auto;html=1;exitX=0.081;exitY=0.506;exitDx=0;exitDy=0;exitPerimeter=0;endArrow=none;endFill=0;" parent="1" source="u4SjlKCRXY-vNbzxDMIi-142" target="u4SjlKCRXY-vNbzxDMIi-138" edge="1">
          <mxGeometry relative="1" as="geometry">
            <mxPoint x="2532" y="1408" as="sourcePoint" />
            <mxPoint x="2484" y="1434" as="targetPoint" />
          </mxGeometry>
        </mxCell>
        <mxCell id="u4SjlKCRXY-vNbzxDMIi-144" value="&amp;lt;&amp;lt;component&amp;gt;&amp;gt;&lt;br&gt;Организация" style="shape=module;align=left;spacingLeft=20;align=center;verticalAlign=top;whiteSpace=wrap;html=1;" parent="1" vertex="1">
          <mxGeometry x="2108" y="1571" width="119" height="51.5" as="geometry" />
        </mxCell>
        <mxCell id="u4SjlKCRXY-vNbzxDMIi-145" value="" style="rounded=0;orthogonalLoop=1;jettySize=auto;html=1;endArrow=halfCircle;endFill=0;endSize=6;strokeWidth=1;sketch=0;" parent="1" edge="1">
          <mxGeometry relative="1" as="geometry">
            <mxPoint x="2168" y="1447" as="sourcePoint" />
            <mxPoint x="2168" y="1502" as="targetPoint" />
            <Array as="points" />
          </mxGeometry>
        </mxCell>
        <mxCell id="u4SjlKCRXY-vNbzxDMIi-146" value="" style="ellipse;whiteSpace=wrap;html=1;align=center;aspect=fixed;resizable=0;points=[];outlineConnect=0;sketch=0;direction=south;rotation=132;" parent="1" vertex="1">
          <mxGeometry x="2162.5" y="1521" width="10" height="10" as="geometry" />
        </mxCell>
        <mxCell id="u4SjlKCRXY-vNbzxDMIi-147" style="rounded=0;orthogonalLoop=1;jettySize=auto;html=1;exitX=0.5;exitY=0;exitDx=0;exitDy=0;endArrow=none;endFill=0;" parent="1" source="u4SjlKCRXY-vNbzxDMIi-144" target="u4SjlKCRXY-vNbzxDMIi-146" edge="1">
          <mxGeometry relative="1" as="geometry">
            <mxPoint x="2241.5" y="1594" as="sourcePoint" />
            <mxPoint x="2192.5" y="1531" as="targetPoint" />
          </mxGeometry>
        </mxCell>
        <mxCell id="u4SjlKCRXY-vNbzxDMIi-148" value="Менеджер" style="text;html=1;align=center;verticalAlign=middle;resizable=0;points=[];autosize=1;strokeColor=none;fillColor=none;" parent="1" vertex="1">
          <mxGeometry x="2181" y="1521" width="76" height="26" as="geometry" />
        </mxCell>
        <mxCell id="u4SjlKCRXY-vNbzxDMIi-149" style="rounded=0;orthogonalLoop=1;jettySize=auto;html=1;endArrow=none;endFill=0;dashed=1;startArrow=open;startFill=0;endSize=6;startSize=10;" parent="1" source="u4SjlKCRXY-vNbzxDMIi-146" edge="1">
          <mxGeometry relative="1" as="geometry">
            <mxPoint x="2212.5" y="1523.5" as="sourcePoint" />
            <mxPoint x="2167.5" y="1498.5" as="targetPoint" />
          </mxGeometry>
        </mxCell>
        <mxCell id="u4SjlKCRXY-vNbzxDMIi-150" value="Менеджер" style="text;html=1;align=center;verticalAlign=middle;resizable=0;points=[];autosize=1;strokeColor=none;fillColor=none;" parent="1" vertex="1">
          <mxGeometry x="2178.5" y="1469.5" width="76" height="26" as="geometry" />
        </mxCell>
        <mxCell id="u4SjlKCRXY-vNbzxDMIi-158" value="&lt;br&gt;Багаж" style="shape=module;align=left;spacingLeft=20;align=center;verticalAlign=top;whiteSpace=wrap;html=1;" parent="1" vertex="1">
          <mxGeometry x="1974" y="1052" width="109" height="50" as="geometry" />
        </mxCell>
        <mxCell id="u4SjlKCRXY-vNbzxDMIi-159" value="" style="rounded=0;orthogonalLoop=1;jettySize=auto;html=1;endArrow=halfCircle;endFill=0;endSize=6;strokeWidth=1;sketch=0;" parent="1" edge="1">
          <mxGeometry relative="1" as="geometry">
            <mxPoint x="2116.86" y="1391" as="sourcePoint" />
            <mxPoint x="2117" y="1351" as="targetPoint" />
            <Array as="points" />
          </mxGeometry>
        </mxCell>
        <mxCell id="u4SjlKCRXY-vNbzxDMIi-160" style="rounded=0;orthogonalLoop=1;jettySize=auto;html=1;endArrow=none;endFill=0;dashed=1;startArrow=open;startFill=0;endSize=6;startSize=10;" parent="1" source="u4SjlKCRXY-vNbzxDMIi-162" edge="1">
          <mxGeometry relative="1" as="geometry">
            <mxPoint x="2162" y="1341" as="sourcePoint" />
            <mxPoint x="2117" y="1351" as="targetPoint" />
          </mxGeometry>
        </mxCell>
        <mxCell id="u4SjlKCRXY-vNbzxDMIi-161" style="rounded=0;orthogonalLoop=1;jettySize=auto;html=1;endArrow=none;endFill=0;entryX=0.5;entryY=1;entryDx=0;entryDy=0;" parent="1" target="u4SjlKCRXY-vNbzxDMIi-256" edge="1">
          <mxGeometry relative="1" as="geometry">
            <mxPoint x="2116.83" y="1290" as="sourcePoint" />
            <mxPoint x="2116.83" y="1241" as="targetPoint" />
          </mxGeometry>
        </mxCell>
        <mxCell id="u4SjlKCRXY-vNbzxDMIi-162" value="" style="ellipse;whiteSpace=wrap;html=1;align=center;aspect=fixed;resizable=0;points=[];outlineConnect=0;sketch=0;direction=south;rotation=132;" parent="1" vertex="1">
          <mxGeometry x="2112" y="1291" width="10" height="10" as="geometry" />
        </mxCell>
        <mxCell id="u4SjlKCRXY-vNbzxDMIi-164" value="Информация об&lt;br&gt;авиарейсе" style="text;html=1;align=center;verticalAlign=middle;resizable=0;points=[];autosize=1;strokeColor=none;fillColor=none;" parent="1" vertex="1">
          <mxGeometry x="2133" y="1331" width="108" height="41" as="geometry" />
        </mxCell>
        <mxCell id="u4SjlKCRXY-vNbzxDMIi-235" style="rounded=0;orthogonalLoop=1;jettySize=auto;html=1;endArrow=none;endFill=0;dashed=1;startArrow=open;startFill=0;endSize=6;startSize=10;exitX=0.89;exitY=0.485;exitDx=0;exitDy=0;exitPerimeter=0;" parent="1" source="u4SjlKCRXY-vNbzxDMIi-138" edge="1">
          <mxGeometry relative="1" as="geometry">
            <mxPoint x="2463" y="1484" as="sourcePoint" />
            <mxPoint x="2377" y="1422" as="targetPoint" />
          </mxGeometry>
        </mxCell>
        <mxCell id="u4SjlKCRXY-vNbzxDMIi-236" value="Компания" style="text;html=1;align=center;verticalAlign=middle;resizable=0;points=[];autosize=1;strokeColor=none;fillColor=none;" parent="1" vertex="1">
          <mxGeometry x="2422" y="1448.5" width="73" height="26" as="geometry" />
        </mxCell>
        <mxCell id="u4SjlKCRXY-vNbzxDMIi-262" style="rounded=0;orthogonalLoop=1;jettySize=auto;html=1;exitX=0.547;exitY=0.963;exitDx=0;exitDy=0;entryX=0.5;entryY=0;entryDx=0;entryDy=0;endArrow=none;endFill=0;exitPerimeter=0;" parent="1" source="u4SjlKCRXY-vNbzxDMIi-238" target="u4SjlKCRXY-vNbzxDMIi-256" edge="1">
          <mxGeometry relative="1" as="geometry" />
        </mxCell>
        <mxCell id="u4SjlKCRXY-vNbzxDMIi-238" value="&lt;br&gt;Авиарейс" style="shape=module;align=left;spacingLeft=20;align=center;verticalAlign=top;whiteSpace=wrap;html=1;" parent="1" vertex="1">
          <mxGeometry x="2045" y="1155" width="130" height="50" as="geometry" />
        </mxCell>
        <mxCell id="u4SjlKCRXY-vNbzxDMIi-250" value="&lt;br&gt;Рейс" style="shape=module;align=left;spacingLeft=20;align=center;verticalAlign=top;whiteSpace=wrap;html=1;" parent="1" vertex="1">
          <mxGeometry x="2116" y="1052" width="109" height="50" as="geometry" />
        </mxCell>
        <mxCell id="u4SjlKCRXY-vNbzxDMIi-246" value="" style="ellipse;whiteSpace=wrap;html=1;align=center;aspect=fixed;resizable=0;points=[];outlineConnect=0;sketch=0;" parent="1" vertex="1">
          <mxGeometry x="2164.003846153846" y="1120.0015384615385" width="10" height="10" as="geometry" />
        </mxCell>
        <mxCell id="u4SjlKCRXY-vNbzxDMIi-247" value="" style="rounded=0;orthogonalLoop=1;jettySize=auto;html=1;endArrow=halfCircle;endFill=0;entryX=0.5;entryY=0.5;endSize=6;strokeWidth=1;sketch=0;exitX=0.909;exitY=-0.007;exitDx=0;exitDy=0;exitPerimeter=0;" parent="1" source="u4SjlKCRXY-vNbzxDMIi-238" target="u4SjlKCRXY-vNbzxDMIi-246" edge="1">
          <mxGeometry relative="1" as="geometry">
            <mxPoint x="2168" y="1154" as="sourcePoint" />
          </mxGeometry>
        </mxCell>
        <mxCell id="u4SjlKCRXY-vNbzxDMIi-248" value="" style="rounded=0;orthogonalLoop=1;jettySize=auto;html=1;endArrow=none;endFill=0;sketch=0;sourcePerimeterSpacing=0;targetPerimeterSpacing=0;exitX=0.6;exitY=0.998;exitDx=0;exitDy=0;exitPerimeter=0;" parent="1" source="u4SjlKCRXY-vNbzxDMIi-250" target="u4SjlKCRXY-vNbzxDMIi-246" edge="1">
          <mxGeometry relative="1" as="geometry">
            <mxPoint x="2204" y="1129" as="sourcePoint" />
          </mxGeometry>
        </mxCell>
        <mxCell id="u4SjlKCRXY-vNbzxDMIi-252" value="" style="rounded=0;orthogonalLoop=1;jettySize=auto;html=1;endArrow=halfCircle;endFill=0;entryX=0.5;entryY=0.5;endSize=6;strokeWidth=1;sketch=0;exitX=0.159;exitY=0.004;exitDx=0;exitDy=0;exitPerimeter=0;" parent="1" source="u4SjlKCRXY-vNbzxDMIi-238" target="u4SjlKCRXY-vNbzxDMIi-253" edge="1">
          <mxGeometry relative="1" as="geometry">
            <mxPoint x="2225" y="1156.38" as="sourcePoint" />
          </mxGeometry>
        </mxCell>
        <mxCell id="u4SjlKCRXY-vNbzxDMIi-253" value="" style="ellipse;whiteSpace=wrap;html=1;align=center;aspect=fixed;resizable=0;points=[];outlineConnect=0;sketch=0;" parent="1" vertex="1">
          <mxGeometry x="2057.003846153846" y="1120.0015384615385" width="10" height="10" as="geometry" />
        </mxCell>
        <mxCell id="u4SjlKCRXY-vNbzxDMIi-254" value="" style="rounded=0;orthogonalLoop=1;jettySize=auto;html=1;endArrow=none;endFill=0;sketch=0;sourcePerimeterSpacing=0;targetPerimeterSpacing=0;exitX=0.75;exitY=1;exitDx=0;exitDy=0;" parent="1" source="u4SjlKCRXY-vNbzxDMIi-158" target="u4SjlKCRXY-vNbzxDMIi-253" edge="1">
          <mxGeometry relative="1" as="geometry">
            <mxPoint x="2257" y="1104.38" as="sourcePoint" />
          </mxGeometry>
        </mxCell>
        <mxCell id="u4SjlKCRXY-vNbzxDMIi-255" value="Место прилета" style="shape=module;align=left;spacingLeft=20;align=center;verticalAlign=top;whiteSpace=wrap;html=1;" parent="1" vertex="1">
          <mxGeometry x="2227" y="1112" width="109" height="50" as="geometry" />
        </mxCell>
        <mxCell id="u4SjlKCRXY-vNbzxDMIi-256" value="" style="whiteSpace=wrap;html=1;aspect=fixed;" parent="1" vertex="1">
          <mxGeometry x="2111.003846153846" y="1232.5015384615385" width="10" height="10" as="geometry" />
        </mxCell>
        <mxCell id="u4SjlKCRXY-vNbzxDMIi-258" value="Информация об&lt;br&gt;авиарейсе" style="text;html=1;align=center;verticalAlign=middle;resizable=0;points=[];autosize=1;strokeColor=none;fillColor=none;" parent="1" vertex="1">
          <mxGeometry x="2121" y="1247" width="108" height="41" as="geometry" />
        </mxCell>
        <mxCell id="u4SjlKCRXY-vNbzxDMIi-268" style="rounded=0;orthogonalLoop=1;jettySize=auto;html=1;entryX=0.25;entryY=1;entryDx=0;entryDy=0;endArrow=none;endFill=0;" parent="1" source="u4SjlKCRXY-vNbzxDMIi-266" target="u4SjlKCRXY-vNbzxDMIi-255" edge="1">
          <mxGeometry relative="1" as="geometry" />
        </mxCell>
        <mxCell id="u4SjlKCRXY-vNbzxDMIi-266" value="" style="ellipse;whiteSpace=wrap;html=1;align=center;aspect=fixed;resizable=0;points=[];outlineConnect=0;sketch=0;" parent="1" vertex="1">
          <mxGeometry x="2199.003846153846" y="1166.1215384615384" width="10" height="10" as="geometry" />
        </mxCell>
        <mxCell id="u4SjlKCRXY-vNbzxDMIi-267" value="" style="rounded=0;orthogonalLoop=1;jettySize=auto;html=1;endArrow=halfCircle;endFill=0;endSize=6;strokeWidth=1;sketch=0;exitX=1;exitY=0.5;exitDx=0;exitDy=0;" parent="1" source="u4SjlKCRXY-vNbzxDMIi-238" target="u4SjlKCRXY-vNbzxDMIi-266" edge="1">
          <mxGeometry relative="1" as="geometry">
            <mxPoint x="2188" y="1186" as="sourcePoint" />
            <mxPoint x="2195" y="1157" as="targetPoint" />
          </mxGeometry>
        </mxCell>
        <mxCell id="u4SjlKCRXY-vNbzxDMIi-289" value="Защищенная&lt;br&gt;линия" style="text;html=1;align=center;verticalAlign=middle;resizable=0;points=[];autosize=1;strokeColor=none;fillColor=none;" parent="1" vertex="1">
          <mxGeometry x="3133.9994117647057" y="1027.9982352941176" width="100" height="40" as="geometry" />
        </mxCell>
        <mxCell id="u4SjlKCRXY-vNbzxDMIi-290" value="" style="endArrow=none;html=1;rounded=0;entryX=0;entryY=0;entryDx=0;entryDy=65;entryPerimeter=0;" parent="1" source="u4SjlKCRXY-vNbzxDMIi-291" target="u4SjlKCRXY-vNbzxDMIi-293" edge="1">
          <mxGeometry width="50" height="50" relative="1" as="geometry">
            <mxPoint x="3694" y="1334" as="sourcePoint" />
            <mxPoint x="3812.9994117647057" y="1276.9982352941176" as="targetPoint" />
          </mxGeometry>
        </mxCell>
        <mxCell id="u4SjlKCRXY-vNbzxDMIi-291" value="&amp;lt;&amp;lt;device&amp;gt;&amp;gt;&lt;br&gt;Веб-сервер" style="verticalAlign=top;align=center;spacingTop=8;spacingLeft=2;spacingRight=12;shape=cube;size=10;direction=south;fontStyle=0;html=1;whiteSpace=wrap;shadow=0;gradientColor=none;fillColor=default;fillStyle=auto;" parent="1" vertex="1">
          <mxGeometry x="3533.9994117647057" y="1141.9982352941179" width="140" height="70" as="geometry" />
        </mxCell>
        <mxCell id="u4SjlKCRXY-vNbzxDMIi-292" value="" style="group" parent="1" vertex="1" connectable="0">
          <mxGeometry x="3527.9994117647057" y="1237.9982352941179" width="140" height="70" as="geometry" />
        </mxCell>
        <mxCell id="u4SjlKCRXY-vNbzxDMIi-293" value="&amp;lt;&amp;lt;device&amp;gt;&amp;gt;" style="verticalAlign=top;align=center;spacingTop=8;spacingLeft=2;spacingRight=12;shape=cube;size=10;direction=south;fontStyle=4;html=1;whiteSpace=wrap;shadow=0;gradientColor=none;fillColor=default;fillStyle=auto;" parent="u4SjlKCRXY-vNbzxDMIi-292" vertex="1">
          <mxGeometry width="140" height="70" as="geometry" />
        </mxCell>
        <mxCell id="u4SjlKCRXY-vNbzxDMIi-294" value="ПК Клиента" style="text;html=1;align=center;verticalAlign=middle;resizable=0;points=[];autosize=1;strokeColor=none;fillColor=none;" parent="u4SjlKCRXY-vNbzxDMIi-292" vertex="1">
          <mxGeometry x="24" y="32" width="83" height="26" as="geometry" />
        </mxCell>
        <mxCell id="u4SjlKCRXY-vNbzxDMIi-295" value="Локальная сеть компании" style="verticalAlign=top;align=center;spacingTop=8;spacingLeft=2;spacingRight=12;shape=cube;size=10;direction=south;fontStyle=0;html=1;whiteSpace=wrap;strokeColor=default;" parent="1" vertex="1">
          <mxGeometry x="3242" y="1048" width="190" height="48" as="geometry" />
        </mxCell>
        <mxCell id="u4SjlKCRXY-vNbzxDMIi-297" value="Защищенная&lt;br&gt;линия" style="text;html=1;align=center;verticalAlign=middle;resizable=0;points=[];autosize=1;strokeColor=none;fillColor=none;" parent="1" vertex="1">
          <mxGeometry x="3437" y="1019.9999999999999" width="100" height="40" as="geometry" />
        </mxCell>
        <mxCell id="u4SjlKCRXY-vNbzxDMIi-298" style="rounded=0;orthogonalLoop=1;jettySize=auto;html=1;entryX=0;entryY=0;entryDx=19;entryDy=0;entryPerimeter=0;endArrow=none;endFill=0;exitX=0;exitY=0;exitDx=38;exitDy=140;exitPerimeter=0;" parent="1" source="u4SjlKCRXY-vNbzxDMIi-300" target="u4SjlKCRXY-vNbzxDMIi-295" edge="1">
          <mxGeometry relative="1" as="geometry">
            <mxPoint x="3477" y="1186" as="sourcePoint" />
          </mxGeometry>
        </mxCell>
        <mxCell id="u4SjlKCRXY-vNbzxDMIi-299" value="" style="group" parent="1" vertex="1" connectable="0">
          <mxGeometry x="3534" y="1030" width="140" height="66" as="geometry" />
        </mxCell>
        <mxCell id="u4SjlKCRXY-vNbzxDMIi-300" value="&amp;lt;&amp;lt;device&amp;gt;&amp;gt;" style="verticalAlign=top;align=center;spacingTop=8;spacingLeft=2;spacingRight=12;shape=cube;size=10;direction=south;fontStyle=4;html=1;whiteSpace=wrap;shadow=0;gradientColor=none;fillColor=default;fillStyle=auto;" parent="u4SjlKCRXY-vNbzxDMIi-299" vertex="1">
          <mxGeometry width="140" height="66" as="geometry" />
        </mxCell>
        <mxCell id="u4SjlKCRXY-vNbzxDMIi-301" value="АРМ менеджера" style="text;html=1;align=center;verticalAlign=middle;resizable=0;points=[];autosize=1;strokeColor=none;fillColor=none;" parent="u4SjlKCRXY-vNbzxDMIi-299" vertex="1">
          <mxGeometry x="10.999411764705883" y="26.99823529411765" width="110" height="26" as="geometry" />
        </mxCell>
        <mxCell id="u4SjlKCRXY-vNbzxDMIi-302" value="" style="group" parent="1" vertex="1" connectable="0">
          <mxGeometry x="2795" y="989" width="328" height="184" as="geometry" />
        </mxCell>
        <mxCell id="u4SjlKCRXY-vNbzxDMIi-303" value="&amp;lt;&amp;lt;device&amp;gt;&amp;gt;&lt;br&gt;Сервер компании" style="verticalAlign=top;align=center;spacingTop=8;spacingLeft=2;spacingRight=12;shape=cube;size=10;direction=south;fontStyle=0;html=1;whiteSpace=wrap;strokeColor=default;" parent="u4SjlKCRXY-vNbzxDMIi-302" vertex="1">
          <mxGeometry width="328" height="184" as="geometry" />
        </mxCell>
        <mxCell id="u4SjlKCRXY-vNbzxDMIi-305" value="" style="group" parent="u4SjlKCRXY-vNbzxDMIi-302" vertex="1" connectable="0">
          <mxGeometry x="5" y="46" width="204" height="129.5" as="geometry" />
        </mxCell>
        <mxCell id="u4SjlKCRXY-vNbzxDMIi-306" value="&amp;lt;&amp;lt;device&amp;gt;&amp;gt;&lt;br&gt;БД" style="verticalAlign=top;align=center;spacingTop=8;spacingLeft=2;spacingRight=12;shape=cube;size=10;direction=south;fontStyle=0;html=1;whiteSpace=wrap;" parent="u4SjlKCRXY-vNbzxDMIi-305" vertex="1">
          <mxGeometry width="204" height="129.5" as="geometry" />
        </mxCell>
        <mxCell id="u4SjlKCRXY-vNbzxDMIi-308" value="&lt;div&gt;&amp;lt;&amp;lt;artifact&amp;gt;&amp;gt;&lt;/div&gt;&lt;div&gt;Договоры&lt;/div&gt;" style="rounded=0;whiteSpace=wrap;html=1;" parent="u4SjlKCRXY-vNbzxDMIi-305" vertex="1">
          <mxGeometry x="4.999411764705883" y="54.998235294117876" width="90" height="30" as="geometry" />
        </mxCell>
        <mxCell id="u4SjlKCRXY-vNbzxDMIi-309" value="&lt;div&gt;&amp;lt;&amp;lt;artifact&amp;gt;&amp;gt;&lt;/div&gt;&lt;div&gt;Авиарейсы&lt;/div&gt;" style="rounded=0;whiteSpace=wrap;html=1;" parent="u4SjlKCRXY-vNbzxDMIi-305" vertex="1">
          <mxGeometry x="99.99941176470588" y="54.998235294117876" width="90" height="30" as="geometry" />
        </mxCell>
        <mxCell id="hRU8EZYtDGWD-gS9X_Pq-13" value="&lt;div&gt;&amp;lt;&amp;lt;artifact&amp;gt;&amp;gt;&lt;/div&gt;&lt;div&gt;Финансы&lt;/div&gt;" style="rounded=0;whiteSpace=wrap;html=1;" vertex="1" parent="u4SjlKCRXY-vNbzxDMIi-305">
          <mxGeometry x="99.99941176470566" y="90.99823529411788" width="90" height="30" as="geometry" />
        </mxCell>
        <mxCell id="u4SjlKCRXY-vNbzxDMIi-307" value="&lt;div&gt;&amp;lt;&amp;lt;artifact&amp;gt;&amp;gt;&lt;/div&gt;&lt;div&gt;Клиенты&lt;/div&gt;" style="rounded=0;whiteSpace=wrap;html=1;" parent="u4SjlKCRXY-vNbzxDMIi-305" vertex="1">
          <mxGeometry x="4.9994117647056555" y="90.99823529411788" width="90" height="30" as="geometry" />
        </mxCell>
        <mxCell id="u4SjlKCRXY-vNbzxDMIi-304" value="&amp;lt;&amp;lt;device&amp;gt;&amp;gt;&lt;br&gt;СУБД" style="verticalAlign=top;align=center;spacingTop=8;spacingLeft=2;spacingRight=12;shape=cube;size=10;direction=south;fontStyle=0;html=1;whiteSpace=wrap;" parent="u4SjlKCRXY-vNbzxDMIi-302" vertex="1">
          <mxGeometry x="222" y="74" width="86" height="49.5" as="geometry" />
        </mxCell>
        <mxCell id="hRU8EZYtDGWD-gS9X_Pq-3" value="" style="endArrow=none;html=1;rounded=0;entryX=-0.021;entryY=0.522;entryDx=0;entryDy=0;entryPerimeter=0;exitX=1;exitY=0.522;exitDx=0;exitDy=0;exitPerimeter=0;" edge="1" parent="1" source="u4SjlKCRXY-vNbzxDMIi-300" target="u4SjlKCRXY-vNbzxDMIi-291">
          <mxGeometry width="50" height="50" relative="1" as="geometry">
            <mxPoint x="3537" y="1241" as="sourcePoint" />
            <mxPoint x="3537" y="1295" as="targetPoint" />
          </mxGeometry>
        </mxCell>
        <mxCell id="hRU8EZYtDGWD-gS9X_Pq-4" style="rounded=0;orthogonalLoop=1;jettySize=auto;html=1;entryX=0;entryY=0;entryDx=29;entryDy=190;entryPerimeter=0;endArrow=none;endFill=0;exitX=0;exitY=0;exitDx=87;exitDy=0;exitPerimeter=0;" edge="1" parent="1" source="u4SjlKCRXY-vNbzxDMIi-303" target="u4SjlKCRXY-vNbzxDMIi-295">
          <mxGeometry relative="1" as="geometry">
            <mxPoint x="3487" y="1196" as="sourcePoint" />
            <mxPoint x="3388" y="1105" as="targetPoint" />
          </mxGeometry>
        </mxCell>
      </root>
    </mxGraphModel>
  </diagram>
</mxfile>
